<?xml version="1.0" encoding="UTF-8"?>
<svg width="117px" height="40px" viewBox="0 0 117 40" version="1.1" xmlns="http://www.w3.org/2000/svg" xmlns:xlink="http://www.w3.org/1999/xlink">
    <!-- Generator: Sketch 50.2 (55047) - http://www.bohemiancoding.com/sketch -->
    <title>opt-logo-white</title>
    <desc>Created with Sketch.</desc>
    <defs/>
    <g id="Home" stroke="none" stroke-width="1" fill="none" fill-rule="evenodd">
        <g transform="translate(-243.000000, -5147.000000)" fill="#FFFFFF" fill-rule="nonzero" id="Group-9">
            <g transform="translate(0.000000, 5027.000000)">
                <g id="opt-logo-white" transform="translate(243.000000, 120.000000)">
                    <polygon id="Shape" points="1.86218487 36.5815126 1.86218487 8.26890756 9.45546218 8.26890756 9.45546218 6.58823529 0.181512605 6.58823529 0.181512605 38.2621849 61.3915966 38.2621849 61.3915966 36.5815126"/>
                    <path d="M15.0487395,14.5243697 C14.0468823,14.5344982 13.0529491,14.3459937 12.1243697,13.9697479 C11.2605967,13.6205088 10.4728961,13.1067911 9.80504202,12.4571429 C9.15328593,11.8172123 8.63363662,11.0554406 8.27563025,10.2151261 C7.90727876,9.34688175 7.72190686,8.41201234 7.73109244,7.46890756 L7.73109244,7.42857143 C7.72174465,5.53937694 8.48137371,3.72767377 9.83529412,2.41008403 C10.5148865,1.75739679 11.3137231,1.24157661 12.1882353,0.890756303 C14.0674274,0.149874443 16.1577827,0.149874443 18.0369748,0.890756303 C18.9006289,1.2402232 19.6882879,1.75391384 20.3563025,2.40336134 C20.9942245,3.04575583 21.5011146,3.8060909 21.8487395,4.64201681 C22.2272279,5.51037352 22.4217894,6.44770181 22.4201681,7.39495798 L22.4201681,7.43529412 C22.4240698,9.31915609 21.6635572,11.1240089 20.312605,12.4369748 C19.6330126,13.089662 18.8341761,13.6054822 17.9596639,13.9563025 C17.0362039,14.3354089 16.0469796,14.5284562 15.0487395,14.5243697 Z M15.0789916,11.112605 C15.5706723,11.1190049 16.057947,11.0192569 16.507563,10.8201681 C16.9236208,10.6356422 17.2967798,10.3666471 17.6033613,10.0302521 C17.9075798,9.69072371 18.1458246,9.29744873 18.3058824,8.87058824 C18.4771077,8.42204513 18.5637243,7.94565389 18.5613445,7.46554622 L18.5613445,7.42857143 C18.5636467,6.94847057 18.4770327,6.47209347 18.3058824,6.02352941 C18.1421508,5.59091501 17.8968052,5.19379746 17.5831933,4.85378151 C17.269418,4.5103866 16.8914384,4.23175517 16.4705882,4.03361345 C15.5641084,3.63732394 14.5333706,3.63732394 13.6268908,4.03361345 C12.7881256,4.41306519 12.1391961,5.11657753 11.8285714,5.98319328 C11.6620312,6.43515542 11.5777879,6.91329289 11.5798319,7.39495798 L11.5798319,7.43529412 C11.5774522,7.91540179 11.6640688,8.39179303 11.8352941,8.84033613 C11.9979045,9.27123006 12.2395856,9.66795179 12.5478992,10.010084 C12.8584823,10.3515294 13.2345672,10.6270201 13.6537815,10.8201681 C14.1013972,11.0217899 14.5881463,11.1216653 15.0789916,11.112605 Z" id="Shape"/>
                    <path d="M23.9394958,0.605042017 L29.7882353,0.605042017 C30.5849211,0.599149425 31.378008,0.712447551 32.1411765,0.941176471 C32.7958138,1.12987175 33.4061015,1.44758708 33.9361345,1.87563025 C34.4286892,2.28410729 34.8189085,2.8020974 35.0756303,3.38823529 C35.3490989,4.02495951 35.4853905,4.71214407 35.4756303,5.40504202 L35.4756303,5.44537815 C35.490551,6.17761195 35.3400335,6.90377276 35.0352941,7.5697479 C34.7522556,8.16890176 34.3360628,8.6954661 33.8184874,9.1092437 C33.2586521,9.54282273 32.6173818,9.85945709 31.9327731,10.0403361 C31.1670548,10.2546313 30.3749413,10.3598692 29.5798319,10.3529412 L27.707563,10.3529412 L27.707563,14.2521008 L23.9394958,14.2521008 L23.9394958,0.605042017 Z M29.5159664,7.39495798 C30.0861869,7.42848385 30.6497433,7.25810633 31.1058824,6.91428571 C31.4899366,6.59264231 31.702399,6.11056389 31.6806723,5.61008403 L31.6806723,5.5697479 C31.7137184,5.05567686 31.5003317,4.55652679 31.1058824,4.22521008 C30.637697,3.89198571 30.0693768,3.72943903 29.4957983,3.76470588 L27.7210084,3.76470588 L27.7210084,7.39495798 L29.5159664,7.39495798 Z" id="Shape"/>
                    <polygon id="Shape" points="36.6117647 0.605042017 47.5697479 0.605042017 47.5697479 3.82184874 40.3361345 3.82184874 40.3361345 5.88907563 46.887395 5.88907563 46.887395 8.87058824 40.3361345 8.87058824 40.3361345 11.0352941 47.6672269 11.0352941 47.6672269 14.2521008 36.6117647 14.2521008"/>
                    <polygon id="Shape" points="49.1663866 0.605042017 52.702521 0.605042017 58.3294118 7.81848739 58.3294118 0.605042017 62.0537815 0.605042017 62.0537815 14.2521008 58.7327731 14.2521008 52.8907563 6.76638655 52.8907563 14.2521008 49.1663866 14.2521008"/>
                    <path d="M7.73109244,34.4806723 L7.73109244,21.2806723 L9.21680672,21.2806723 L9.60336134,22.2554622 C9.9764667,21.8820249 10.4181635,21.5841364 10.9042017,21.3781513 C11.4275599,21.1634755 11.9890083,21.057132 12.5546218,21.0655462 C13.17785,21.0593659 13.7949484,21.1889796 14.3630252,21.4453782 C14.9072894,21.6930841 15.3955865,22.0487291 15.7983193,22.4907563 C16.2101979,22.9459298 16.5318656,23.4751987 16.7462185,24.0504202 C17.2025506,25.2835049 17.2025506,26.6391842 16.7462185,27.8722689 C16.5320134,28.447562 16.2103295,28.9768574 15.7983193,29.4319328 C15.3953926,29.8728887 14.9070872,30.2273961 14.3630252,30.4739496 C13.7949484,30.7303482 13.17785,30.8599618 12.5546218,30.8537815 C11.9769754,30.8613678 11.4042439,30.7468215 10.8739496,30.5176471 C10.390017,30.3024966 9.95702459,29.9874889 9.60336134,29.5932773 L9.60336134,34.4672269 L7.73109244,34.4806723 Z M12.4033613,22.7831933 C12.0367511,22.7812676 11.6726598,22.8438457 11.3277311,22.9680672 C10.9893874,23.0911381 10.6843961,23.2913965 10.4369748,23.5529412 C10.1685185,23.8430199 9.96459738,24.1867073 9.83865546,24.5613445 C9.68574889,25.017087 9.61296369,25.4958772 9.62352941,25.9764706 C9.61150472,26.4824656 9.68421702,26.9869072 9.83865546,27.4689076 C9.95821728,27.8464362 10.1629232,28.1914462 10.4369748,28.4773109 C10.6875505,28.7278994 10.9922902,28.917643 11.3277311,29.0319328 C11.6739922,29.1498768 12.037571,29.2089584 12.4033613,29.2067227 C12.7767162,29.2082271 13.1451874,29.1218667 13.4789916,28.9546218 C13.8194643,28.7788298 14.1194355,28.5338152 14.3596639,28.2352941 C14.6130598,27.9360435 14.8121401,27.5947629 14.9478992,27.2268908 C15.234822,26.4202739 15.234822,25.53939 14.9478992,24.7327731 C14.8146245,24.3637342 14.6152983,24.0220321 14.3596639,23.7243697 C14.1159535,23.4415789 13.8160311,23.2126305 13.4789916,23.0521008 C13.145618,22.8816866 12.7777094,22.7897094 12.4033613,22.7831933 Z" id="Shape"/>
                    <polygon id="Shape" points="20.7193277 16.3865546 20.7193277 30.6184874 18.8235294 30.6184874 18.8235294 16.3865546"/>
                    <path d="M31.7142857,21.2806723 L31.7142857,30.6184874 L30.1142857,30.6184874 L29.8218487,29.5462185 C29.4980996,29.9741593 29.0682402,30.310168 28.5747899,30.5210084 C28.090514,30.7386816 27.5662262,30.8531549 27.0352941,30.8571429 C26.4078859,30.8617738 25.7867322,30.7322713 25.2134454,30.4773109 C24.6560228,30.2301054 24.1524232,29.8761012 23.7310924,29.4352941 C21.8850052,27.48981 21.8850052,24.4396017 23.7310924,22.4941176 C24.1525368,22.0534427 24.6561086,21.699458 25.2134454,21.4521008 C25.7867322,21.1971405 26.4078859,21.067638 27.0352941,21.0722689 C27.5513512,21.0713567 28.0623216,21.1742367 28.5378151,21.3747899 C29.0335857,21.5869476 29.4740306,21.9100938 29.8252101,22.3193277 L30.1176471,21.287395 L31.7142857,21.2806723 Z M27.0352941,29.1764706 C27.4076293,29.1784611 27.7751215,29.0920601 28.107563,28.9243697 C28.4444244,28.7562158 28.7430601,28.520511 28.9848739,28.2319328 C29.2367942,27.9322305 29.4346982,27.5910167 29.5697479,27.2235294 C29.855302,26.4166769 29.855302,25.5362643 29.5697479,24.7294118 C29.4346982,24.3619245 29.2367942,24.0207107 28.9848739,23.7210084 C28.7428592,23.4326372 28.4442697,23.1969689 28.107563,23.0285714 C27.4325923,22.6909052 26.6379959,22.6909052 25.9630252,23.0285714 C25.6262155,23.1968068 25.3275953,23.4324994 25.0857143,23.7210084 C24.8335123,24.0205128 24.6355783,24.3617783 24.5008403,24.7294118 C24.2152862,25.5362643 24.2152862,26.4166769 24.5008403,27.2235294 C24.6355783,27.5911629 24.8335123,27.9324284 25.0857143,28.2319328 C25.3273933,28.5206498 25.6260602,28.7563792 25.9630252,28.9243697 C26.2954668,29.0920601 26.6629589,29.1784611 27.0352941,29.1764706 Z" id="Shape"/>
                    <path d="M35.4957983,30.6184874 L33.6134454,30.6184874 L33.6134454,21.2806723 L35.1159664,21.2806723 L35.5058824,22.1008403 C35.836236,21.790223 36.2184943,21.5399349 36.6352941,21.3613445 C37.0901144,21.1637385 37.5814415,21.0640988 38.0773109,21.0689076 C38.4652434,21.0751676 38.851091,21.1270653 39.2268908,21.2235294 C39.6638041,21.3312855 40.0728355,21.5306454 40.4268908,21.8084034 C40.8247536,22.128876 41.1443329,22.5358223 41.3613445,22.9983193 C41.6375883,23.6170058 41.7675611,24.2910241 41.7411765,24.9680672 L41.7411765,30.6218487 L39.9462185,30.6218487 L39.9462185,24.9478992 C39.9540268,24.6026729 39.8911118,24.2594999 39.7613445,23.9394958 C39.5524403,23.4328123 39.1203759,23.0516521 38.5915966,22.907563 C38.3344876,22.8355686 38.0686786,22.7993733 37.8016807,22.8 C37.5597812,22.8053605 37.3198615,22.8449699 37.0890756,22.9176471 C36.5266317,23.085158 36.0470872,23.4568051 35.7445378,23.9596639 C35.5729642,24.2588352 35.4880039,24.5998401 35.4991597,24.9445378 L35.4957983,30.6184874 Z" id="Shape"/>
                    <path d="M45.9058824,30.6184874 L44.0134454,30.6184874 L44.0134454,21.2806723 L45.5159664,21.2806723 L45.9058824,22.1008403 C46.236236,21.790223 46.6184943,21.5399349 47.0352941,21.3613445 C47.4901144,21.1637385 47.9814415,21.0640988 48.4773109,21.0689076 C48.8652434,21.0751676 49.251091,21.1270653 49.6268908,21.2235294 C50.0638041,21.3312855 50.4728355,21.5306454 50.8268908,21.8084034 C51.2247536,22.128876 51.5443329,22.5358223 51.7613445,22.9983193 C52.0375883,23.6170058 52.1675611,24.2910241 52.1411765,24.9680672 L52.1411765,30.6218487 L50.3529412,30.6218487 L50.3529412,24.9478992 C50.3607495,24.6026729 50.2978344,24.2594999 50.1680672,23.9394958 C49.959163,23.4328123 49.5270986,23.0516521 48.9983193,22.907563 C48.7412103,22.8355686 48.4754013,22.7993733 48.2084034,22.8 C47.9665039,22.8053605 47.7265842,22.8449699 47.4957983,22.9176471 C46.9333544,23.085158 46.4538099,23.4568051 46.1512605,23.9596639 C45.9796869,24.2588352 45.8947266,24.5998401 45.9058824,24.9445378 L45.9058824,30.6184874 Z" id="Shape"/>
                    <path d="M58.8907563,30.8537815 C58.2372674,30.8587472 57.5897197,30.7294665 56.9882353,30.4739496 C55.1783909,29.7056675 54.0068331,27.9258008 54.0168067,25.9596639 C54.013441,24.6755406 54.4934283,23.4371734 55.3613445,22.4907563 C55.765706,22.0528776 56.2522533,21.6988174 56.7932773,21.4487395 C57.3430958,21.1946177 57.9422075,21.064925 58.5478992,21.0689076 C59.1524732,21.0642806 59.7520654,21.1784886 60.312605,21.405042 C60.8578837,21.6296734 61.3401616,21.9838823 61.7176471,22.4369748 C62.1438487,22.9629428 62.4583737,23.5702619 62.6420168,24.2218487 C62.8805912,25.0622502 62.9938559,25.9332551 62.9781513,26.8067227 L56.0235294,26.8067227 C56.1141907,27.1430285 56.2595481,27.4621334 56.4537815,27.7512605 C56.6438075,28.0358535 56.8761776,28.2897603 57.1428571,28.5042017 C57.4115052,28.719925 57.7150303,28.8881711 58.0403361,29.0016807 C58.3751595,29.1189654 58.7275857,29.1780821 59.0823529,29.1764706 C60.0027456,29.1796211 60.8866607,28.8168653 61.5394958,28.1680672 L62.7092437,29.3378151 C62.226985,29.8097829 61.6556804,30.1811309 61.0285714,30.4302521 C60.3509119,30.7111682 59.6243328,30.8551131 58.8907563,30.8537815 Z M58.5546218,22.7865546 C58.2631526,22.7849419 57.9745861,22.8444873 57.707563,22.9613445 C57.435998,23.0821459 57.1861619,23.2468107 56.9680672,23.4487395 C56.7356596,23.6631564 56.5383054,23.9126847 56.3831933,24.1882353 C56.2185294,24.4805855 56.0973672,24.7953806 56.0235294,25.1226891 L60.9546218,25.1226891 C60.9292361,24.8142876 60.8566834,24.5116066 60.7394958,24.2252101 C60.6264332,23.9464951 60.4609816,23.692042 60.2521008,23.4756303 C60.0440609,23.2608808 59.7963514,23.0885116 59.5226891,22.9680672 C59.2123376,22.8375125 58.8777577,22.7744923 58.5411765,22.7831933 L58.5546218,22.7865546 Z" id="Shape"/>
                    <path d="M70.1579832,22.9008403 C70.0795518,22.8739496 69.9887955,22.8481793 69.8857143,22.8235294 C69.7757592,22.796287 69.6628586,22.7827389 69.5495798,22.7831933 C69.1905349,22.7800811 68.8339546,22.842739 68.497479,22.9680672 C68.1905404,23.0815827 67.9069003,23.250172 67.6605042,23.4655462 C67.4292632,23.6709751 67.240795,23.9199814 67.1058824,24.1983193 C66.9699667,24.4743297 66.8997875,24.7780559 66.9008403,25.0857143 L66.8907563,30.6184874 L64.9983193,30.6184874 L64.9983193,21.2806723 L66.5008403,21.2806723 L66.8907563,22.3159664 C67.1497461,21.9373925 67.4954906,21.6262224 67.8991597,21.4084034 C68.3931637,21.1665555 68.939457,21.0510601 69.4890756,21.0722689 C69.9678979,21.0797243 70.444553,21.1383202 70.9109244,21.2470588 L70.4235294,23.0218487 L70.1579832,22.9008403 Z" id="Shape"/>
                    <path d="M80.3159664,30.9243697 C79.8360967,30.9697347 79.3525756,30.8922325 78.9109244,30.6991597 C78.4719199,30.4846344 78.1170463,30.1297608 77.902521,29.6907563 C77.6105472,29.0661384 77.4766441,28.3793077 77.512605,27.6907563 L77.512605,22.9579832 L76.1478992,22.9579832 L76.1478992,21.6672269 L77.512605,21.2806723 L77.512605,18.7865546 L79.405042,18.7865546 L79.405042,21.2806723 L81.9394958,21.2806723 L81.9394958,22.9613445 L79.405042,22.9613445 L79.405042,28.0033613 C79.3958256,28.2543394 79.4322714,28.5049046 79.512605,28.7428571 C79.5781452,28.9190339 79.7061469,29.0649797 79.8722689,29.1529412 C80.0813864,29.2541433 80.3124683,29.3015151 80.5445378,29.2907563 C80.8820028,29.2871005 81.2188629,29.2612746 81.5529412,29.2134454 L81.9226891,30.5983193 C81.4034256,30.7758701 80.863365,30.885464 80.3159664,30.9243697 Z" id="Shape"/>
                    <path d="M87.9193277,30.8537815 C87.2658388,30.8587472 86.6182912,30.7294665 86.0168067,30.4739496 C84.2069623,29.7056675 83.0354045,27.9258008 83.0453782,25.9596639 C83.0420125,24.6755406 83.5219997,23.4371734 84.389916,22.4907563 C84.7942774,22.0528776 85.2808247,21.6988174 85.8218487,21.4487395 C86.3716673,21.1946177 86.9707789,21.064925 87.5764706,21.0689076 C88.1810446,21.0642806 88.7806368,21.1784886 89.3411765,21.405042 C89.8864552,21.6296734 90.368733,21.9838823 90.7462185,22.4369748 C91.1676211,22.9575412 91.4797238,23.5577387 91.6638655,24.2016807 C91.90244,25.0420821 92.0157046,25.913087 92,26.7865546 L85.0420168,26.7865546 C85.1326781,27.1228605 85.2780355,27.4419653 85.4722689,27.7310924 C85.6627701,28.0183158 85.8963124,28.2745321 86.1647059,28.4907563 C86.4333539,28.7064796 86.736879,28.8747257 87.0621849,28.9882353 C87.3970082,29.10552 87.7494345,29.1646367 88.1042017,29.1630252 C89.0245943,29.1661758 89.9085095,28.8034199 90.5613445,28.1546218 L91.7310924,29.3243697 C91.2488337,29.7963375 90.6775291,30.1676855 90.0504202,30.4168067 C89.3757884,30.7014632 88.6515454,30.8499673 87.9193277,30.8537815 Z M87.5831933,22.7865546 C87.291724,22.7849419 87.0031576,22.8444873 86.7361345,22.9613445 C86.4645695,23.0821459 86.2147333,23.2468107 85.9966387,23.4487395 C85.7642311,23.6631564 85.5668768,23.9126847 85.4117647,24.1882353 C85.2471008,24.4805855 85.1259387,24.7953806 85.0521008,25.1226891 L89.9831933,25.1226891 C89.9578076,24.8142876 89.8852548,24.5116066 89.7680672,24.2252101 C89.6550046,23.9464951 89.489553,23.692042 89.2806723,23.4756303 C89.0726323,23.2608808 88.8249228,23.0885116 88.5512605,22.9680672 C88.240909,22.8375125 87.9063291,22.7744923 87.5697479,22.7831933 L87.5831933,22.7865546 Z" id="Shape"/>
                    <path d="M102.678992,21.2806723 L102.678992,30.6184874 L101.078992,30.6184874 L100.786555,29.5462185 C100.462805,29.9741593 100.032946,30.310168 99.5394958,30.5210084 C99.0552199,30.7386816 98.5309321,30.8531549 98,30.8571429 C97.3725917,30.8617738 96.7514381,30.7322713 96.1781513,30.4773109 C95.6207287,30.2301054 95.1171291,29.8761012 94.6957983,29.4352941 C92.8497111,27.48981 92.8497111,24.4396017 94.6957983,22.4941176 C95.1172427,22.0534427 95.6208145,21.699458 96.1781513,21.4521008 C96.7514381,21.1971405 97.3725917,21.067638 98,21.0722689 C98.5160571,21.0713567 99.0270274,21.1742367 99.502521,21.3747899 C99.9982916,21.5869476 100.438737,21.9100938 100.789916,22.3193277 L101.082353,21.287395 L102.678992,21.2806723 Z M98,29.1764706 C98.3723352,29.1784611 98.7398273,29.0920601 99.0722689,28.9243697 C99.4091302,28.7562158 99.707766,28.520511 99.9495798,28.2319328 C100.2015,27.9322305 100.399404,27.5910167 100.534454,27.2235294 C100.820008,26.4166769 100.820008,25.5362643 100.534454,24.7294118 C100.399404,24.3619245 100.2015,24.0207107 99.9495798,23.7210084 C99.707565,23.4326372 99.4089756,23.1969689 99.0722689,23.0285714 C98.3972982,22.6909052 97.6027018,22.6909052 96.9277311,23.0285714 C96.5909214,23.1968068 96.2923012,23.4324994 96.0504202,23.7210084 C95.7982182,24.0205128 95.6002842,24.3617783 95.4655462,24.7294118 C95.1799921,25.5362643 95.1799921,26.4166769 95.4655462,27.2235294 C95.6002842,27.5911629 95.7982182,27.9324284 96.0504202,28.2319328 C96.2920992,28.5206498 96.5907661,28.7563792 96.9277311,28.9243697 C97.2601727,29.0920601 97.6276648,29.1784611 98,29.1764706 Z" id="Shape"/>
                    <path d="M106.497479,30.6184874 L104.605042,30.6184874 L104.605042,21.2806723 L106.107563,21.2806723 L106.497479,22.0806723 C106.738082,21.8014258 107.020407,21.5610523 107.334454,21.3680672 C107.694665,21.1571237 108.10715,21.0522548 108.52437,21.0655462 C108.731115,21.0678183 108.93714,21.0903347 109.139496,21.1327731 C109.38199,21.1837401 109.617743,21.2627005 109.842017,21.3680672 C110.092143,21.4847995 110.325117,21.6352148 110.534454,21.8151261 C110.767775,22.0197517 110.959502,22.2673991 111.09916,22.5445378 C111.343291,22.1186555 111.689912,21.760481 112.107563,21.502521 C112.531144,21.218432 113.02947,21.0663608 113.539496,21.0655462 C113.902246,21.0686351 114.262921,21.1206447 114.611765,21.2201681 C115.00252,21.3322423 115.362419,21.5323143 115.663866,21.805042 C116.018749,22.1346605 116.292556,22.5419195 116.463866,22.994958 C116.692717,23.6256002 116.798825,24.2941966 116.776471,24.9647059 L116.776471,30.6184874 L115.001681,30.6184874 L115.001681,24.9478992 C115.001681,24.1411765 114.835854,23.5809524 114.504202,23.2672269 C114.146197,22.9387995 113.671843,22.7669673 113.186555,22.789916 C112.761868,22.793843 112.361172,22.9874101 112.094118,23.3176471 C111.782633,23.6694678 111.626891,24.2218487 111.626891,24.9747899 L111.626891,30.6285714 L109.852101,30.6285714 L109.852101,24.9478992 C109.852101,24.1411765 109.686275,23.5809524 109.354622,23.2672269 C108.996617,22.9387995 108.522264,22.7669673 108.036975,22.789916 C107.653522,22.793266 107.288535,22.9550772 107.028571,23.2369748 C106.697913,23.6308933 106.514868,24.1277297 106.510924,24.6420168 L106.497479,30.6184874 Z" id="Shape"/>
                    <path d="M62.9579832,39.7546218 C62.6286866,39.7582649 62.3019365,39.6965709 61.9966387,39.5731092 C61.712321,39.4585665 61.4531233,39.2895742 61.2336134,39.0756303 C61.0188877,38.8656998 60.8475664,38.6155708 60.7294118,38.3394958 C60.6071825,38.0538431 60.5453828,37.7459887 60.5478992,37.4352941 C60.5447719,36.8139017 60.7947758,36.2180186 61.2403361,35.7848739 C61.4624986,35.5701997 61.723811,35.4001755 62.010084,35.2840336 C62.6267998,35.0411072 63.312696,35.0411072 63.9294118,35.2840336 C64.2137294,35.3985764 64.4729271,35.5675687 64.692437,35.7815126 C64.9070954,35.9914996 65.0784069,36.2416144 65.1966387,36.5176471 C65.3188679,36.8032998 65.3806677,37.1111541 65.3781513,37.4218487 C65.3816684,38.0433185 65.131603,38.6393482 64.6857143,39.0722689 C64.4635518,39.2869431 64.2022394,39.4569674 63.9159664,39.5731092 C63.6117151,39.6961347 63.2861506,39.7578206 62.9579832,39.7546218 Z M62.9579832,38.6352941 C63.118912,38.6366646 63.2782546,38.6034205 63.4252101,38.5378151 C63.561713,38.4773521 63.6841831,38.3892194 63.7848739,38.2789916 C63.8851286,38.1679027 63.9637844,38.0390895 64.0168067,37.8991597 C64.0729465,37.7521455 64.101436,37.5960228 64.1008403,37.4386555 C64.101436,37.2812881 64.0729465,37.1251654 64.0168067,36.9781513 C63.96251,36.8363246 63.8814922,36.7062396 63.7781513,36.594958 C63.67447,36.4834394 63.550013,36.3932366 63.4117647,36.3294118 C63.1138913,36.1991861 62.7751843,36.1991861 62.4773109,36.3294118 C62.2017847,36.4534303 61.9883227,36.6838722 61.8857143,36.9680672 C61.8316586,37.1155515 61.8043401,37.2714946 61.805042,37.4285714 C61.8044463,37.5859388 61.8329358,37.7420614 61.8890756,37.8890756 C61.9428773,38.0303854 62.0226864,38.1603602 62.1243697,38.2722689 C62.2263507,38.3842281 62.3498068,38.474534 62.487395,38.5378151 C62.6384301,38.6051649 62.8027847,38.6373463 62.9680672,38.6319328 L62.9579832,38.6352941 Z" id="Shape"/>
                    <path d="M72.2957983,30.4403361 C72.3977793,30.5522954 72.5212354,30.6426012 72.6588235,30.7058824 C72.8052126,30.7735732 72.9647738,30.8080108 73.1260504,30.8067227 C73.2869792,30.8080932 73.4463219,30.774849 73.5932773,30.7092437 C73.7297802,30.6487807 73.8522503,30.560648 73.9529412,30.4504202 C74.0531958,30.3393313 74.1318516,30.2105181 74.1848739,30.0705882 C74.2410137,29.9235741 74.2695033,29.7674514 74.2689076,29.610084 C74.2695033,29.4527167 74.2410137,29.296594 74.1848739,29.1495798 C74.1305772,29.0077532 74.0495594,28.8776682 73.9462185,28.7663866 C73.8425373,28.6548679 73.7180802,28.5646651 73.5798319,28.5008403 C73.2819586,28.3706146 72.9432515,28.3706146 72.6453782,28.5008403 C72.3698519,28.6248589 72.1563899,28.8553008 72.0537815,29.1394958 C71.9997258,29.2869801 71.9724073,29.4429231 71.9731092,29.6 C71.9725135,29.7573674 72.0010031,29.91349 72.0571429,30.0605042 C72.1123267,30.2008823 72.193269,30.3297061 72.2957983,30.4403361 Z" id="Shape"/>
                </g>
            </g>
        </g>
    </g>
</svg>